<?xml version="1.0" encoding="UTF-8"?>
<!DOCTYPE svg
  PUBLIC '-//W3C//DTD SVG 1.1//EN'
  'http://www.w3.org/Graphics/SVG/1.1/DTD/svg11.dtd'>
<svg version="1.1" xmlns="http://www.w3.org/2000/svg" width="32.000mm" height="15.000mm">
    <!--Autogenerated with python-barcode 0.13.1-->
    <g id="barcode_group">
        <rect width="100%" height="100%" style="fill:none"/>
        <rect x="6.500mm" y="1.000mm" width="0.200mm" height="7.000mm" style="fill:black;"/>
        <rect x="6.700mm" y="1.000mm" width="0.200mm" height="7.000mm" style="fill:white;"/>
        <rect x="6.900mm" y="1.000mm" width="0.200mm" height="7.000mm" style="fill:black;"/>
        <rect x="7.100mm" y="1.000mm" width="0.600mm" height="7.000mm" style="fill:white;"/>
        <rect x="7.700mm" y="1.000mm" width="0.200mm" height="7.000mm" style="fill:black;"/>
        <rect x="7.900mm" y="1.000mm" width="0.200mm" height="7.000mm" style="fill:white;"/>
        <rect x="8.100mm" y="1.000mm" width="0.400mm" height="7.000mm" style="fill:black;"/>
        <rect x="8.500mm" y="1.000mm" width="0.200mm" height="7.000mm" style="fill:white;"/>
        <rect x="8.700mm" y="1.000mm" width="0.200mm" height="7.000mm" style="fill:black;"/>
        <rect x="8.900mm" y="1.000mm" width="0.400mm" height="7.000mm" style="fill:white;"/>
        <rect x="9.300mm" y="1.000mm" width="0.600mm" height="7.000mm" style="fill:black;"/>
        <rect x="9.900mm" y="1.000mm" width="0.200mm" height="7.000mm" style="fill:white;"/>
        <rect x="10.100mm" y="1.000mm" width="0.400mm" height="7.000mm" style="fill:black;"/>
        <rect x="10.500mm" y="1.000mm" width="0.400mm" height="7.000mm" style="fill:white;"/>
        <rect x="10.900mm" y="1.000mm" width="0.400mm" height="7.000mm" style="fill:black;"/>
        <rect x="11.300mm" y="1.000mm" width="0.400mm" height="7.000mm" style="fill:white;"/>
        <rect x="11.700mm" y="1.000mm" width="0.200mm" height="7.000mm" style="fill:black;"/>
        <rect x="11.900mm" y="1.000mm" width="0.400mm" height="7.000mm" style="fill:white;"/>
        <rect x="12.300mm" y="1.000mm" width="0.400mm" height="7.000mm" style="fill:black;"/>
        <rect x="12.700mm" y="1.000mm" width="0.200mm" height="7.000mm" style="fill:white;"/>
        <rect x="12.900mm" y="1.000mm" width="0.800mm" height="7.000mm" style="fill:black;"/>
        <rect x="13.700mm" y="1.000mm" width="0.200mm" height="7.000mm" style="fill:white;"/>
        <rect x="13.900mm" y="1.000mm" width="0.200mm" height="7.000mm" style="fill:black;"/>
        <rect x="14.100mm" y="1.000mm" width="0.400mm" height="7.000mm" style="fill:white;"/>
        <rect x="14.500mm" y="1.000mm" width="0.600mm" height="7.000mm" style="fill:black;"/>
        <rect x="15.100mm" y="1.000mm" width="0.200mm" height="7.000mm" style="fill:white;"/>
        <rect x="15.300mm" y="1.000mm" width="0.200mm" height="7.000mm" style="fill:black;"/>
        <rect x="15.500mm" y="1.000mm" width="0.200mm" height="7.000mm" style="fill:white;"/>
        <rect x="15.700mm" y="1.000mm" width="0.200mm" height="7.000mm" style="fill:black;"/>
        <rect x="15.900mm" y="1.000mm" width="0.200mm" height="7.000mm" style="fill:white;"/>
        <rect x="16.100mm" y="1.000mm" width="0.200mm" height="7.000mm" style="fill:black;"/>
        <rect x="16.300mm" y="1.000mm" width="0.200mm" height="7.000mm" style="fill:white;"/>
        <rect x="16.500mm" y="1.000mm" width="0.400mm" height="7.000mm" style="fill:black;"/>
        <rect x="16.900mm" y="1.000mm" width="0.400mm" height="7.000mm" style="fill:white;"/>
        <rect x="17.300mm" y="1.000mm" width="0.400mm" height="7.000mm" style="fill:black;"/>
        <rect x="17.700mm" y="1.000mm" width="0.200mm" height="7.000mm" style="fill:white;"/>
        <rect x="17.900mm" y="1.000mm" width="0.400mm" height="7.000mm" style="fill:black;"/>
        <rect x="18.300mm" y="1.000mm" width="0.200mm" height="7.000mm" style="fill:white;"/>
        <rect x="18.500mm" y="1.000mm" width="0.400mm" height="7.000mm" style="fill:black;"/>
        <rect x="18.900mm" y="1.000mm" width="0.400mm" height="7.000mm" style="fill:white;"/>
        <rect x="19.300mm" y="1.000mm" width="0.200mm" height="7.000mm" style="fill:black;"/>
        <rect x="19.500mm" y="1.000mm" width="0.800mm" height="7.000mm" style="fill:white;"/>
        <rect x="20.300mm" y="1.000mm" width="0.200mm" height="7.000mm" style="fill:black;"/>
        <rect x="20.500mm" y="1.000mm" width="0.200mm" height="7.000mm" style="fill:white;"/>
        <rect x="20.700mm" y="1.000mm" width="0.200mm" height="7.000mm" style="fill:black;"/>
        <rect x="20.900mm" y="1.000mm" width="0.200mm" height="7.000mm" style="fill:white;"/>
        <rect x="21.100mm" y="1.000mm" width="0.600mm" height="7.000mm" style="fill:black;"/>
        <rect x="21.700mm" y="1.000mm" width="0.400mm" height="7.000mm" style="fill:white;"/>
        <rect x="22.100mm" y="1.000mm" width="0.200mm" height="7.000mm" style="fill:black;"/>
        <rect x="22.300mm" y="1.000mm" width="0.400mm" height="7.000mm" style="fill:white;"/>
        <rect x="22.700mm" y="1.000mm" width="0.600mm" height="7.000mm" style="fill:black;"/>
        <rect x="23.300mm" y="1.000mm" width="0.200mm" height="7.000mm" style="fill:white;"/>
        <rect x="23.500mm" y="1.000mm" width="0.200mm" height="7.000mm" style="fill:black;"/>
        <rect x="23.700mm" y="1.000mm" width="0.600mm" height="7.000mm" style="fill:white;"/>
        <rect x="24.300mm" y="1.000mm" width="0.200mm" height="7.000mm" style="fill:black;"/>
        <rect x="24.500mm" y="1.000mm" width="0.400mm" height="7.000mm" style="fill:white;"/>
        <rect x="24.900mm" y="1.000mm" width="0.200mm" height="7.000mm" style="fill:black;"/>
        <rect x="25.100mm" y="1.000mm" width="0.200mm" height="7.000mm" style="fill:white;"/>
        <rect x="25.300mm" y="1.000mm" width="0.200mm" height="7.000mm" style="fill:black;"/>
        <text x="16.000mm" y="13.000mm" style="fill:black;font-size:10pt;text-anchor:middle;">5901234123457</text>
    </g>
</svg>
